<svg width="1616" height="703" viewBox="0 0 1616 703" fill="none" xmlns="http://www.w3.org/2000/svg">
<g clip-path="url(#clip0_703_10080)">
<path d="M389.401 1.73331C381.534 3.99998 373.534 9.19998 369.267 14.9333C367.534 17.3333 351.267 43.6 333.267 73.3333C312.601 107.467 299.934 129.733 299.001 133.733C295.401 147.467 301.934 161.6 314.867 168.267C323.667 172.933 332.467 173.2 341.934 169.067C347.934 166.533 352.734 161.333 390.067 118.133C433.801 67.4666 437.534 62.5333 440.467 54C443.001 46 442.601 32.4 439.401 25.2C431.001 6.39998 409.267 -3.86669 389.401 1.73331Z" fill="#EB2D4B"/>
<path d="M410.067 134.533C404.6 137.733 402.6 140 399.934 145.6C396.867 152.133 396.067 158.667 389.667 225.867C385.667 268.533 383.134 301.333 383.534 304.533C385.8 318.267 394.467 329.6 407.134 335.333C414.334 338.533 416.6 338.933 426.067 338.4C434.334 338.133 438.6 337.2 443.4 334.667C454.867 328.933 463.8 316.4 465.267 304.267C465.667 300.8 462.867 264.933 459 224.667C451.134 142.533 451.267 142.933 440.467 135.333C435.934 132.133 433.267 131.333 425.934 130.933C417.934 130.533 416.2 130.933 410.067 134.533Z" fill="#EB2D4B"/>
<path d="M31.6672 133.2C19.9339 136.267 9.53388 144.4 4.20055 154.933C1.93388 159.067 1.00055 163.733 0.600551 172C0.0672174 182.8 0.333884 183.733 4.60055 191.6C9.26722 200.4 87.9339 292.8 95.5339 298.4C106.867 306.8 123.001 305.733 134.334 295.733C141.934 289.067 144.867 281.467 144.067 270.4C143.534 262.133 143.267 261.333 109.267 205.333C73.6672 146.667 70.0672 141.6 58.2006 135.867C51.6672 132.8 38.3339 131.467 31.6672 133.2Z" fill="#EB2D4B"/>
<path d="M147.667 162.267C137.401 167.6 132.334 176 132.334 187.467C132.334 197.2 136.334 205.733 142.867 210C145.534 211.733 177.667 226.267 214.334 242.267L281.001 271.2L292.334 271.333C301.667 271.333 304.867 270.8 310.201 268.133C338.601 254.133 341.801 213.867 315.667 196.533C309.401 192.4 303.534 190.8 237.001 176C195.401 166.8 162.201 160 158.334 160C154.734 160.133 149.934 161.067 147.667 162.267Z" fill="#EB2D4B"/>
<path d="M508.333 276.8C497 281.733 490.467 292.267 490.467 305.333C490.467 315.6 494.2 323.6 501.667 329.467C504.2 331.467 533.4 344.4 566.333 358.133L626.333 383.333H638.333C651.4 383.333 657 381.333 666.067 373.467C681.267 360 683.267 333.867 670.467 317.067C662.6 306.8 658.067 305.2 590.2 289.2C525.533 274.133 517.4 272.8 508.333 276.8Z" fill="#EB2D4B"/>
<path d="M172.6 296.8C160.467 301.333 156.2 307.2 117.534 372.667C97.6671 406.4 80.4671 436.133 79.4005 438.667C76.8671 444.533 77.6671 455.2 81.2671 462.133C82.7338 464.933 86.4671 469.067 89.5338 471.333C97.4005 476.8 110.334 477.6 118.734 473.067C122.867 470.8 138.067 454.533 173.534 414.4C228.067 352.667 228.6 351.867 228.6 335.2C228.6 319.067 220.2 305.467 205.8 298.4C197.934 294.533 181.134 293.733 172.6 296.8Z" fill="#EB2D4B"/>
<path d="M457.401 389.333C382.068 406.133 377.268 407.733 369.801 417.2C363.001 425.733 361.268 430.8 360.601 442.133C360.068 451.867 360.468 453.867 363.535 460.8C368.201 471.067 374.735 477.6 384.601 482C391.535 485.067 393.935 485.6 402.868 485.067C412.735 484.533 414.868 483.733 478.335 456.133C514.335 440.533 546.068 426.4 549.135 424.667C552.735 422.533 555.668 419.2 558.201 414.667C565.801 400.8 560.735 383.6 547.135 376.4C543.001 374.267 539.135 373.333 534.468 373.467C530.735 373.467 496.068 380.667 457.401 389.333Z" fill="#EB2D4B"/>
<path d="M236.867 430.533C227.267 435.067 220.067 442.8 216.2 453.2C212.333 463.333 213.133 476.533 218.067 486C223 495.333 316.733 601.067 323.667 604.933C333.133 610.267 348.067 608.4 356.067 600.933C362.2 595.333 364.6 588.4 364.067 578.8L363.533 570L326.333 506.667C305.8 471.867 287.267 441.467 285.267 439.067C283.133 436.667 277.8 432.933 273.4 430.667C266.467 427.333 263.667 426.667 255.133 426.667C246.733 426.667 243.667 427.333 236.867 430.533Z" fill="#EB2D4B"/>
<path d="M103.667 502.667C67.9341 511.067 39.9341 518.267 36.7341 520C28.7341 524.267 21.8008 531.333 18.2008 539.2C13.6674 548.8 13.6674 564.533 18.2008 574.133C25.0008 588.8 36.3341 596.133 53.6674 597.067L65.0008 597.6L126.334 572C160.067 558 189.801 544.8 192.334 542.8C199.401 537.2 203.001 529.2 203.001 519.067C203.001 500.533 190.601 487.867 172.734 488.133C167.801 488.133 142.334 493.467 103.667 502.667Z" fill="#EB2D4B"/>
<path d="M417.001 507.867C407.134 510.4 397.801 518.533 395.001 527.333C393.001 533.6 382.734 659.867 383.667 666.667C385.667 680.667 395.001 693.333 407.534 698.8C417.001 703.067 431.801 703.067 441.001 698.933C454.067 693.067 463.934 679.6 465.267 666.133C466.067 656.533 455.401 531.467 453.134 526.267C450.601 520 444.734 513.6 439.001 510.667C433.267 507.733 422.734 506.4 417.001 507.867Z" fill="#EB2D4B"/>
<path d="M1268.03 593.061V107.649H1441.58C1543.32 107.649 1593.85 150.871 1593.85 237.979C1593.85 300.484 1563.93 336.391 1512.07 339.716C1577.23 342.376 1615.13 382.938 1615.13 452.757C1615.13 546.515 1558.61 593.061 1444.24 593.061H1268.03ZM1375.09 305.139H1430.28C1477.49 305.139 1489.46 293.835 1489.46 247.953C1489.46 201.407 1477.49 189.438 1430.28 189.438H1375.09V305.139ZM1375.09 509.943H1433.6C1490.79 509.943 1504.75 496.644 1504.75 446.108C1504.75 396.237 1490.79 383.603 1434.27 383.603H1375.09V509.943Z" fill="#141ED2"/>
<path d="M981.712 599.711C842.073 599.711 772.918 517.922 772.918 351.685C772.918 184.118 842.073 101 981.712 101C1122.02 101 1191.17 184.118 1191.17 351.685C1191.17 517.922 1122.02 599.711 981.712 599.711ZM981.712 508.613C1059.51 508.613 1078.79 477.36 1078.79 351.685C1078.79 223.35 1059.51 191.433 981.712 191.433C904.578 191.433 885.294 223.35 885.294 351.685C885.294 477.36 904.578 508.613 981.712 508.613Z" fill="#141ED2"/>
</g>
<defs>
<clipPath id="clip0_703_10080">
<rect width="1616" height="703" fill="white"/>
</clipPath>
</defs>
</svg>
